<?xml version="1.0" encoding="UTF-8"?>
<svg id="Layer_1" xmlns="http://www.w3.org/2000/svg" version="1.1" viewBox="0 0 24 24">
  <!-- Generator: Adobe Illustrator 29.1.0, SVG Export Plug-In . SVG Version: 2.1.0 Build 142)  -->
  <path fill="currentColor" d="M23.9,13.2c0,0-.2-.2-.2-.2-3.1,0-6.3,0-9.4,0,.6-1,.9-2.1,1-3.3,0-1.1-.3-2,.9-2.7,1-.6,2-.5,3.2-.4.2,0,.2,0,.1-.2-.3-.4-.9-1-1.3-1.4-.1,0-.5-.4-.6-.4,0-.2-.2-.7-.3-1-.7-1.7-2.6-2.9-4.5-2.8-3.4.2-4.4,3.5-6,5.9-1.6,2.6-3.5,5.1-5.4,7.5-.4.5-1,1.1-1.3,1.6-.4.7.4,1.3.9.9.5-.4,1-1.2,1.5-1.7,0,0,0,0,0-.1.7.1,1.4,0,2.1.2-.9,1.3-1.8,2.6-2.8,3.9-.2.3-.9.9-1,1.2-.3.5.2,1,.7.9.2,0,.3-.2.4-.3.4-.4.9-1.1,1.3-1.5.6-.8,1.2-1.7,1.9-2.5,1,3.3,3.8,6,7.3,6.6,2.4,0,4.7,0,7.1,0,.8-.5-.2-1.2-.5-1.7,2.8-1.1,4.6-4,4.9-6.9,0-.3.1-1.1,0-1.4ZM3.5,13.6c1.6-2.1,3.2-4.2,4.6-6.4,2.4,0,3.5,2.9,2,4.7-1.5,1.8-4.4,1.9-6.6,1.7ZM12.8,22c-3.5-.5-6.1-3.6-6.6-7,1.9-.1,3.8-.7,5-2.2,2-2.5.7-6-2.4-6.7.8-1.2,1.3-2.7,2.6-3.4,1.8-1.1,4.2-.2,4.9,1.8,0,.2.3.9.2,1.1,0,0-.7.3-.9.4-.4.2-.8.5-1,.9-.8,1.2-.4,2.3-.7,3.6-.4,2.4-2.1,3.8-4.3,4.6-.3.1-.7.2-1,.3-.4.2-.2.9,0,1.3.6,2.3,2.4,4.1,4.6,4.9,0,0-.2.4-.3.5ZM22.2,16.4h-12.4c0,0,0-.1,0-.2,1.1-.3,2.2-.9,3.1-1.6,0,0,.4-.4.4-.4h9.3c0,.8-.2,1.5-.5,2.2Z"/>
  <path fill="currentColor" d="M13.4,3.5c1-.2,1.5,1,.7,1.6s-.9.2-1.2-.2,0-1.2.5-1.3Z"/>
</svg>